<svg width="427" height="90" viewBox="0 0 427 90" fill="none" xmlns="http://www.w3.org/2000/svg">
<path d="M17.552 75.152H29.072C31.4613 72.1653 33.3387 67.8133 34.704 62.096C36.1547 56.3787 36.88 50.704 36.88 45.072C36.88 31.6747 34.3627 21.904 29.328 15.76H17.552V75.152ZM0.144 90V0.399994H37.264C49.3813 11.152 55.44 25.744 55.44 44.176C55.44 62.5227 49.7653 77.7973 38.416 90H0.144ZM94.322 38.032H84.722C83.442 39.568 82.3753 41.7013 81.522 44.432C80.754 47.1627 80.37 49.808 80.37 52.368H98.674C98.8447 49.808 98.5033 47.1627 97.65 44.432C96.7967 41.616 95.6873 39.4827 94.322 38.032ZM111.73 76.56V90H79.218C73.2447 85.9893 69.0207 81.04 66.546 75.152C64.1567 69.1787 62.962 63.1627 62.962 57.104C62.962 43.1093 68.2527 32.272 78.834 24.592H99.57C105.287 28.7733 109.17 33.2107 111.218 37.904C113.266 42.5973 114.29 47.3333 114.29 52.112C114.29 56.8907 113.906 60.9867 113.138 64.4H81.266C81.522 66.3627 82.2473 68.624 83.442 71.184C84.722 73.6587 86.0873 75.4507 87.538 76.56H111.73ZM138.751 56.72C138.751 60.304 139.306 63.9733 140.415 67.728C141.524 71.3973 143.06 74.3413 145.023 76.56H164.223V90H136.191C126.122 81.9787 121.087 70.8853 121.087 56.72C121.087 42.5547 126.463 31.8453 137.215 24.592H164.223V38.032H145.023C140.842 42.384 138.751 48.6133 138.751 56.72ZM172.754 90V0.399994H189.778V47.888H191.57L203.602 24.592H220.242L205.138 53.136L220.37 90H203.474L191.698 61.328H189.778V90H172.754ZM248.394 0.399994H282.442C287.818 2.192 292.383 5.52 296.138 10.384C299.978 15.1627 301.898 21.0507 301.898 28.048C301.898 39.4827 297.375 47.888 288.33 53.264L301.258 90H283.338L272.458 57.36H265.674V90H248.394V0.399994ZM265.674 15.76V43.024H276.682C278.133 42.6827 279.711 41.232 281.418 38.672C283.21 36.0267 284.106 32.9547 284.106 29.456C284.106 25.9573 283.338 22.8853 281.802 20.24C280.351 17.5947 278.901 16.1013 277.45 15.76H265.674ZM328.424 15.76V47.76H339.816C344.509 43.92 346.856 38.288 346.856 30.864C346.856 27.7067 346.216 24.72 344.936 21.904C343.741 19.088 342.291 17.04 340.584 15.76H328.424ZM311.144 90V0.399994H345.832C351.635 2.96 356.2 6.88533 359.528 12.176C362.941 17.4667 364.648 23.6533 364.648 30.736C364.648 37.7333 362.899 44.2187 359.4 50.192C355.901 56.1653 350.739 60.3893 343.912 62.864H328.424V90H311.144ZM415.265 90H388.129C381.985 84.368 377.505 77.6693 374.689 69.904C371.873 62.1387 370.465 54.032 370.465 45.584C370.465 37.0507 372.172 28.6453 375.585 20.368C378.998 12.0907 383.777 5.43466 389.921 0.399994H421.025V15.76H397.217C394.998 18.32 393.078 22.3733 391.457 27.92C389.836 33.3813 389.025 39.2267 389.025 45.456C389.025 51.6 389.75 57.488 391.201 63.12C392.737 68.6667 394.614 72.6773 396.833 75.152H409.121V40.336H426.017V61.84C426.017 73.616 422.433 83.0027 415.265 90Z" fill="white"/>
</svg>
