<svg width="791" height="168" viewBox="0 0 791 168" fill="none" xmlns="http://www.w3.org/2000/svg">
<path d="M80.6 21C84.2 23 87.5333 25.5333 90.6 28.6C93.8 31.6667 96.6 34.7333 99 37.8C101.4 40.8667 103.2 43.5333 104.4 45.8L101 142.4C99.8 144.8 97.7333 147.4 94.8 150.2C92 153 88.8 155.667 85.2 158.2C81.6 160.6 78.1333 162.6 74.8 164.2C71.4667 165.933 68.7333 166.933 66.6 167.2L23.2 161.2L13.2 167.2C7.6 165.2 3.26667 162.2 0.2 158.2L8 96.8L5.6 24L11.4 20C12.7333 20.2667 14.5333 20.9333 16.8 22C19.2 22.9333 21.5333 24.0667 23.8 25.4C26.2 26.7333 28.1333 28 29.6 29.2C35.0667 26.4 40.9333 24.2667 47.2 22.8C53.4667 21.3333 59.5333 20.4667 65.4 20.2C71.2667 19.8 76.3333 20.0667 80.6 21ZM28.6 143.6L74.6 138.2C76.0667 131.667 77.2667 124.2 78.2 115.8C79.2667 107.4 79.9333 98.8 80.2 90C80.6 81.2 80.5333 72.7333 80 64.6C79.4667 56.4667 78.4667 49.4667 77 43.6C72.0667 42.9333 66.7333 42.8667 61 43.4C55.4 43.8 49.8667 44.6667 44.4 46C39.0667 47.2 34.3333 48.8 30.2 50.8L28.6 99.4V143.6ZM195.616 132.6C196.549 133.8 197.549 136.133 198.616 139.6C199.816 143.067 200.349 146.133 200.216 148.8C194.482 151.2 188.482 153.6 182.216 156C175.949 158.267 170.082 160.4 164.616 162.4C159.282 164.4 154.882 166 151.416 167.2C147.282 166.133 142.949 164.467 138.416 162.2C133.882 159.933 129.749 157.267 126.016 154.2C122.282 151 119.616 147.8 118.016 144.6L120.816 83.4C122.682 80.0667 125.282 76.7333 128.616 73.4C132.082 69.9333 135.482 66.8 138.816 64C146.549 62.2667 154.082 61.2 161.416 60.8C168.882 60.4 176.016 60.7333 182.816 61.8C184.016 62.4667 185.616 63.9333 187.616 66.2C189.749 68.3333 191.816 70.5333 193.816 72.8C195.816 75.0667 197.149 76.7333 197.816 77.8L197.016 107.6C193.549 110.133 188.882 112.8 183.016 115.6C177.149 118.4 170.682 121.133 163.616 123.8C156.549 126.333 149.482 128.6 142.416 130.6C142.549 133.133 142.749 135.6 143.016 138C143.282 140.4 143.616 142.733 144.016 145L195.616 132.6ZM175.616 82.4C170.816 81.7333 166.149 81.5333 161.616 81.8C157.082 82.0667 152.349 82.8667 147.416 84.2C146.082 88.3333 145.016 92.8 144.216 97.6C143.416 102.4 142.816 107.267 142.416 112.2C148.149 110.333 154.149 107.933 160.416 105C166.816 101.933 172.616 98.7333 177.816 95.4L175.616 82.4ZM237.566 144.8L284.966 133.2C285.899 134.4 286.832 136.733 287.766 140.2C288.832 143.667 289.299 146.733 289.166 149.4C283.566 151.8 277.899 154.133 272.166 156.4C266.566 158.667 261.366 160.733 256.566 162.6C251.899 164.467 248.099 166 245.166 167.2C241.032 166.133 236.699 164.467 232.166 162.2C227.632 159.933 223.499 157.267 219.766 154.2C216.032 151 213.366 147.8 211.766 144.6L214.566 83.4C216.432 80.0667 219.032 76.7333 222.366 73.4C225.832 69.9333 229.232 66.8 232.566 64C240.299 62.2667 247.832 61.2 255.166 60.8C262.632 60.4 269.766 60.7333 276.566 61.8C278.299 62.8667 280.499 64.6667 283.166 67.2C285.966 69.7333 288.032 71.8 289.366 73.4L286.566 105.4C281.499 107.133 275.966 107.133 269.966 105.4L267.366 82.2C262.966 81.8 258.632 81.7333 254.366 82C250.099 82.2667 245.632 83 240.966 84.2C239.099 90.3333 237.766 97 236.966 104.2C236.166 111.267 235.832 118.333 235.966 125.4C236.099 132.467 236.632 138.933 237.566 144.8ZM402.391 137.6C403.457 139.2 404.591 141.667 405.791 145C407.124 148.2 407.924 151.333 408.191 154.4L385.191 167.2C379.191 165.733 373.391 163.267 367.791 159.8C362.324 156.333 358.057 152.933 354.991 149.6C353.657 145.467 352.057 140.533 350.191 134.8C348.457 128.933 347.391 122.267 346.991 114.8C342.324 118.533 338.124 122.867 334.391 127.8L335.791 164C332.857 164.8 329.124 165.2 324.591 165.2C320.057 165.2 316.257 164.8 313.191 164C308.391 159.467 304.524 153.8 301.591 147C302.257 143.267 303.457 139.533 305.191 135.8C306.924 132.067 309.057 128.4 311.591 124.8L312.591 112.8L313.791 25.6L298.191 29.6C297.257 28 296.124 25.8 294.791 23C293.457 20.0667 292.657 17.0667 292.391 14L319.391 0.799991C320.724 0.933323 322.591 1.59999 324.991 2.79999C327.524 3.99999 329.991 5.39999 332.391 6.99999C334.924 8.59999 336.791 9.99999 337.991 11.2L332.391 101.6C336.657 97.7333 341.057 94.0667 345.591 90.6C350.124 87.1333 354.591 83.9333 358.991 81C359.924 78.3333 361.057 75.7333 362.391 73.2C363.724 70.5333 365.591 67.7333 367.991 64.8C371.057 64 374.591 63.5333 378.591 63.4C382.724 63.1333 386.257 63.3333 389.191 64C391.457 66.8 393.191 70.2667 394.391 74.4C395.724 78.4 396.457 82.3333 396.591 86.2C384.324 91.9333 373.657 97.4667 364.591 102.8C365.524 108.4 367.457 115 370.391 122.6C373.324 130.2 377.124 137.467 381.791 144.4L402.391 137.6ZM528.748 104.8L557.548 158.8L547.748 167.2C544.015 166.533 539.815 165.067 535.148 162.8C530.482 160.533 526.415 157.667 522.948 154.2L510.148 107.4L480.748 108.4V157.8L465.348 167.2C459.748 165.2 455.415 162.2 452.348 158.2L460.148 96.8L457.748 24L463.548 20C465.415 20.2667 468.082 21.2667 471.548 23C475.148 24.7333 478.148 26.5333 480.548 28.4C486.015 25.7333 491.748 23.7333 497.748 22.4C503.882 21.0667 509.748 20.2667 515.348 20C521.082 19.7333 526.082 20.0667 530.348 21C533.948 23 537.348 25.5333 540.548 28.6C543.748 31.6667 546.548 34.8 548.948 38C551.482 41.0667 553.348 43.7333 554.548 46L551.948 86L528.748 104.8ZM527.948 43.2C523.815 42.5333 519.082 42.3333 513.748 42.6C508.415 42.7333 503.015 43.3333 497.548 44.4C492.215 45.4667 487.148 47.0667 482.348 49.2L481.148 90L527.748 80C528.548 73.3333 528.948 66.8 528.948 60.4C529.082 53.8667 528.748 48.1333 527.948 43.2ZM647.145 21C650.745 23 654.079 25.5333 657.145 28.6C660.345 31.6667 663.145 34.7333 665.545 37.8C667.945 40.8667 669.745 43.5333 670.945 45.8L667.745 89.8L646.345 113L599.345 114L599.745 164.4L588.545 167.2C585.079 165.467 581.545 163.133 577.945 160.2C574.345 157.133 571.412 153.467 569.145 149.2L578.545 96.8L576.145 24L581.945 20C583.812 20.2667 586.545 21.2667 590.145 23C593.745 24.7333 596.745 26.5333 599.145 28.4C604.345 25.7333 609.812 23.7333 615.545 22.4C621.412 21.0667 627.079 20.2667 632.545 20C638.012 19.7333 642.879 20.0667 647.145 21ZM644.545 43.2C638.412 42.1333 631.279 42.1333 623.145 43.2C615.145 44.1333 607.679 46.1333 600.745 49.2L599.345 96L643.945 86C644.879 78.6667 645.412 71.1333 645.545 63.4C645.679 55.6667 645.345 48.9333 644.545 43.2ZM742.464 87.4H790.864V103L780.064 104.8L778.064 140.8C775.931 144.933 772.931 149.133 769.064 153.4C765.197 157.533 761.464 161.067 757.864 164H716.864C714.731 163.733 711.864 162.667 708.264 160.8C704.797 158.933 701.197 156.667 697.464 154C693.731 151.2 690.464 148.333 687.664 145.4C684.864 142.333 683.064 139.6 682.264 137.2L687.664 47.6C688.997 45.3333 690.864 42.6667 693.264 39.6C695.797 36.4 698.531 33.3333 701.464 30.4C704.397 27.3333 707.064 24.8 709.464 22.8C719.197 20.9333 729.597 20 740.664 20C751.864 20 762.331 21.4667 772.064 24.4C773.931 26.1333 775.797 28.4 777.664 31.2C779.531 33.8667 780.997 36.2667 782.064 38.4L779.264 67.8C776.997 68.6 773.997 69.0667 770.264 69.2C766.531 69.2 763.331 68.9333 760.664 68.4L757.864 43.4C750.931 42.8667 743.531 42.8 735.664 43.2C727.931 43.4667 720.797 44.5333 714.264 46.4C712.264 52.8 710.597 60.4 709.264 69.2C708.064 77.8667 707.264 86.8667 706.864 96.2C706.464 105.4 706.464 114.133 706.864 122.4C707.397 130.667 708.331 137.6 709.664 143.2L757.264 135.2V114.2L739.464 103.2L742.464 87.4Z" fill="white"/>
</svg>
