<svg width="1105" height="176" viewBox="0 0 1105 176" fill="none" xmlns="http://www.w3.org/2000/svg">
<path d="M144 36.6V155.4L123.4 176H2.83122e-07V168H16V24H2.83122e-07V16H123.4L144 36.6ZM62 24V168H98V24H62ZM182.608 176H260.408L279.008 157.4L272.808 151.2L256.008 168H210.008V126H259.408L278.008 107.4V74.6L259.408 56H182.608L164.008 74.6V157.4L182.608 176ZM210.008 64H232.008V118H210.008V64ZM361.039 96V64H340.039V168H378.039L393.839 152.2L400.039 158.4L382.439 176H312.639L294.039 157.4V74.6L312.639 56H386.439L401.039 70.6V96H361.039ZM452.533 -1.09673e-05L471.133 18.6V176H443.733L425.133 157.4V7.99999H409.133V-1.09673e-05H452.533ZM559.533 168V176H503.133L476.133 115.8V108L521.333 56H544.333V64H525.933L487.733 108H522.733L549.533 168H559.533ZM702.555 176V168H686.555V100H719.155V159.4L735.755 176H781.155V168H765.155V112.6L748.555 96L765.155 79.4V34.6L746.555 16H624.555V24H640.555V168H624.555V176H702.555ZM686.555 24H719.155V92H686.555V24ZM933.756 34.6V87.4L913.156 108H853.156V168H869.156V176H791.156V168H807.156V24H791.156V16H915.156L933.756 34.6ZM853.156 100H887.756V24H853.156V100ZM959.852 36.6L980.452 16H1061.45L1075.45 30V14H1084.45V64H1075.45V42.4L1057.05 24H1005.85V168H1030.85L1045.85 153V102H1029.85V94H1104.85V102H1090.85V176H1065.45L1050.45 160.8L1035.25 176H980.452L959.852 155.4V36.6Z" fill="white"/>
</svg>
